<?xml version="1.0" standalone="no"?>
<!DOCTYPE svg PUBLIC "-//W3C//DTD SVG 20010904//EN"
 "http://www.w3.org/TR/2001/REC-SVG-20010904/DTD/svg10.dtd">
<svg version="1.0" xmlns="http://www.w3.org/2000/svg"
 width="300.000000pt" height="300.000000pt" viewBox="0 0 300.000000 300.000000"
 preserveAspectRatio="xMidYMid meet">
<metadata>
Created by potrace 1.10, written by Peter Selinger 2001-2011
</metadata>
<g transform="translate(0.000000,300.000000) scale(0.100000,-0.100000)"
fill="#000000" stroke="none">
<path d="M1410 2973 c-524 -50 -979 -349 -1204 -792 -237 -468 -215 -1023 57
-1461 181 -290 445 -499 776 -614 312 -109 688 -102 1005 18 390 148 718 482
856 872 63 177 74 255 75 504 0 239 -2 255 -62 460 -125 428 -484 787 -940
939 -164 54 -418 88 -563 74z m235 -23 c273 -30 571 -148 758 -299 65 -53 168
-144 174 -155 5 -8 28 -36 53 -64 92 -103 166 -225 235 -387 67 -156 110 -415
101 -612 -6 -134 -48 -348 -86 -438 -5 -11 -19 -45 -31 -75 -13 -30 -31 -67
-41 -82 -10 -14 -18 -30 -18 -35 0 -5 -23 -45 -51 -89 -219 -338 -549 -560
-961 -645 -142 -30 -390 -30 -530 0 -188 39 -375 112 -467 179 -19 14 -30 19
-26 11 5 -8 -4 -4 -20 9 -17 12 -64 48 -105 79 -98 74 -120 94 -199 184 -83
95 -101 118 -101 125 0 4 -15 27 -33 53 -50 71 -55 81 -128 236 -11 23 -69
201 -75 230 -34 161 -43 408 -18 535 9 47 18 96 20 110 11 57 55 203 72 236 5
11 28 57 51 104 52 104 94 172 146 235 205 246 444 411 710 491 216 64 391 84
570 64z"/>
<path d="M1500 2145 c0 -290 3 -445 10 -445 7 0 10 155 10 445 0 290 -3 445
-10 445 -7 0 -10 -155 -10 -445z"/>
<path d="M280 2158 c0 -5 9 -8 20 -8 34 0 86 -57 130 -143 23 -45 70 -133 103
-194 l60 -113 58 0 58 0 -41 73 c-61 107 -137 268 -144 303 -8 40 22 74 66 74
17 0 30 3 30 8 0 4 -76 7 -170 7 -93 0 -170 -3 -170 -7z m186 -34 c17 -4 23
-16 27 -54 5 -40 49 -147 86 -210 23 -38 50 -104 45 -109 -9 -8 -32 28 -95
148 -30 58 -68 129 -83 158 -34 64 -29 80 20 67z"/>
<path d="M1010 2158 c0 -4 13 -8 29 -8 16 0 39 -8 52 -19 l23 -19 -17 -56
c-10 -30 -51 -123 -92 -206 -109 -220 -68 -186 50 42 107 205 136 245 184 254
62 13 28 19 -99 19 -72 1 -130 -3 -130 -7z"/>
<path d="M1650 2159 c0 -4 13 -9 29 -12 68 -14 81 -59 81 -279 l0 -168 55 0
55 0 0 161 c0 88 5 180 11 205 12 47 48 84 80 84 11 0 19 3 19 8 0 4 -74 7
-165 7 -91 0 -165 -3 -165 -6z m199 -45 c2 -2 -2 -32 -8 -67 -6 -35 -11 -109
-11 -165 0 -103 -5 -136 -21 -126 -5 3 -9 58 -9 123 0 64 -5 143 -11 174 -5
32 -7 62 -4 67 5 8 52 4 64 -6z"/>
<path d="M2360 2160 c0 -3 14 -10 32 -15 21 -7 40 -23 52 -45 18 -30 21 -57
24 -217 l4 -183 48 0 47 0 5 178 c7 224 24 272 99 272 12 0 20 3 16 6 -7 8
-327 11 -327 4z m195 -68 c-12 -47 -25 -186 -25 -264 0 -45 -4 -78 -10 -78 -6
0 -10 43 -10 108 -1 59 -7 141 -14 182 -8 41 -12 78 -10 81 1 3 19 3 39 1 34
-4 36 -6 30 -30z"/>
<path d="M480 1600 c0 -6 11 -28 25 -50 14 -22 25 -49 25 -60 0 -11 5 -20 11
-20 6 0 8 8 5 18 -4 11 6 37 24 65 16 25 25 49 20 52 -5 3 -19 -13 -31 -35
l-23 -41 -18 35 c-19 36 -38 55 -38 36z"/>
<path d="M681 1605 c-6 -24 2 -111 11 -122 15 -18 63 -16 82 3 18 17 23 124 6
124 -5 0 -10 -24 -10 -54 0 -59 -16 -82 -49 -71 -22 7 -28 24 -34 90 -2 22 -5
36 -6 30z"/>
<path d="M890 1541 c0 -39 4 -71 9 -71 11 0 22 54 12 58 -4 1 -5 17 -3 36 2
18 -1 37 -7 40 -8 5 -11 -15 -11 -63z"/>
<path d="M951 1575 l-31 -36 32 -34 c40 -45 58 -45 24 -1 -32 42 -32 43 -1 68
14 11 25 24 25 29 0 18 -19 8 -49 -26z"/>
<path d="M1087 1603 c-11 -10 -8 -133 3 -133 6 0 10 30 10 70 0 70 -1 76 -13
63z"/>
<path d="M1200 1540 c0 -40 4 -70 10 -70 6 0 10 14 10 30 0 28 2 30 40 30 38
0 40 -2 40 -30 0 -16 4 -30 9 -30 11 0 12 119 2 135 -3 6 -8 -5 -11 -24 -5
-31 -8 -34 -43 -35 -35 -1 -37 0 -37 32 0 17 -4 32 -10 32 -6 0 -10 -30 -10
-70z"/>
<path d="M1429 1545 c-32 -72 -33 -75 -19 -75 6 0 10 7 10 15 0 23 76 20 89
-2 5 -10 12 -15 15 -12 7 7 -50 139 -59 139 -4 0 -19 -29 -36 -65z m61 -17 c0
-5 -11 -8 -25 -8 -29 0 -29 0 -13 35 l12 26 13 -23 c7 -13 12 -26 13 -30z"/>
<path d="M1618 1604 c-12 -11 -10 -134 2 -134 6 0 10 9 10 20 0 15 7 20 25 20
14 0 29 -8 35 -20 6 -11 16 -20 22 -20 6 0 4 10 -5 24 -14 21 -14 25 -2 30 19
7 19 50 1 65 -18 15 -79 25 -88 15z m77 -44 c0 -21 -5 -26 -32 -28 -31 -3 -33
-1 -33 28 0 29 2 31 33 28 27 -2 32 -7 32 -28z"/>
<path d="M1822 1543 c-17 -37 -29 -70 -26 -72 3 -3 10 2 15 12 13 22 84 24 93
2 3 -8 10 -15 15 -15 11 0 -34 107 -54 128 -9 10 -18 -1 -43 -55z m53 7 l16
-30 -30 0 c-28 0 -29 1 -18 30 6 17 13 30 14 30 1 0 9 -13 18 -30z"/>
<path d="M2010 1538 l0 -69 46 3 c57 4 90 37 78 81 -8 33 -35 49 -86 52 l-38
2 0 -69z m90 34 c30 -24 21 -68 -17 -83 -47 -18 -58 -9 -59 49 -1 50 0 52 26
52 15 0 38 -8 50 -18z"/>
<path d="M2224 1601 c-2 -2 -4 -33 -4 -68 l0 -63 53 2 c50 1 50 2 10 5 -38 4
-43 7 -43 29 0 21 5 24 35 24 19 0 35 5 35 11 0 6 -14 9 -32 7 -28 -2 -34 1
-36 20 -3 20 1 22 37 22 23 0 41 4 41 10 0 9 -86 10 -96 1z"/>
<path d="M2390 1605 c0 -16 60 -135 68 -135 12 0 67 128 59 136 -3 4 -18 -20
-33 -52 l-27 -59 -25 58 c-14 31 -29 57 -34 57 -4 0 -8 -2 -8 -5z"/>
<path d="M718 1213 c-5 -182 -13 -207 -73 -234 l-40 -18 170 0 c102 -1 165 3
160 8 -6 5 -21 11 -34 13 -44 6 -61 45 -73 164 -5 60 -8 135 -6 167 l4 57 -52
0 -52 0 -4 -157z m66 91 c3 -9 6 -59 6 -112 0 -53 5 -114 11 -135 14 -53 8
-64 -34 -59 -34 4 -34 4 -27 40 13 60 19 122 19 205 1 72 11 97 25 61z"/>
<path d="M1502 963 c0 -225 3 -394 4 -378 7 68 8 785 2 785 -5 0 -7 -183 -6
-407z"/>
<path d="M1758 1213 c-2 -115 -7 -166 -18 -187 -15 -29 -22 -34 -70 -54 -19
-8 18 -11 145 -11 102 -1 165 3 160 8 -6 5 -21 11 -34 13 -16 2 -33 16 -45 38
-18 30 -21 56 -24 193 l-4 157 -53 0 -53 0 -4 -157z m75 -15 c4 -68 9 -140 13
-160 l7 -38 -38 0 c-36 0 -37 1 -31 28 3 15 8 74 11 132 12 209 29 226 38 38z"/>
<path d="M2468 1218 c-5 -173 -19 -224 -67 -234 -60 -13 -51 -19 31 -22 49 -1
127 -1 175 0 83 3 92 9 32 22 -44 10 -60 67 -66 238 l-6 148 -47 0 -48 0 -4
-152z m62 80 c1 -83 12 -219 20 -248 14 -50 14 -52 -27 -48 -21 2 -37 8 -36
13 0 6 4 26 8 45 3 19 9 86 12 148 3 61 10 112 14 112 5 0 9 -10 9 -22z"/>
</g>
</svg>
